<?xml version="1.0" encoding="utf-8"?>
<!-- Generator: Adobe Illustrator 22.1.0, SVG Export Plug-In . SVG Version: 6.00 Build 0)  -->
<svg version="1.1" id="Capa_1" xmlns="http://www.w3.org/2000/svg" xmlns:xlink="http://www.w3.org/1999/xlink" x="0px" y="0px"
	 viewBox="0 0 1056.7 278.1" style="enable-background:new 0 0 1056.7 278.1;" xml:space="preserve">
<style type="text/css">
	.st0{fill:#FFFFFF;}
</style>
<g>
	<path class="st0" d="M185.4,43.5c-10.9,0-20.7,4.1-27.9,11.7c-7.2-7.6-16.9-11.7-27.9-11.7C103.5,43.5,88,60.8,88,89.8v130.5
		c0,7.6,6.2,13.8,13.8,13.8c7.6,0,13.8-6.2,13.8-13.8V92.7c0-20.5,7.5-23.1,14.1-23.1c6.6,0,14.1,2.6,14.1,23.1v127.6
		c0,7.6,6.2,13.8,13.8,13.8s13.8-6.2,13.8-13.8V92.7c0-20.5,7.5-23.1,14.1-23.1c6.5,0,14,2.6,14,23.1v127.6
		c0,7.6,6.2,13.8,13.8,13.8s13.8-6.2,13.8-13.8V89.8C227.1,60.8,211.5,43.5,185.4,43.5z"/>
	<path class="st0" d="M324.7,44c-7.6,0-13.8,6.2-13.8,13.8V186c0,20.3-7.6,23.1-15.1,23.1s-15.1-2.7-15.1-23.1V57.8
		c0-7.6-6.2-13.8-13.8-13.8c-7.6,0-13.8,6.2-13.8,13.8v131.5c0,29,16,46.3,42.7,46.3c26.7,0,42.7-17.3,42.7-46.3V57.8
		C338.5,50.2,332.3,44,324.7,44z"/>
	<path class="st0" d="M412,114.3l-9.8-6.5c-9.3-6-12.6-11.7-12.6-21.9c0-10.3,5.5-16.9,14.1-16.9c6.6,0,12.8,2,12.8,16.9v1.5
		c0,8.1,5.7,14.1,13.5,14.1s13.5-5.7,13.5-13.5v-2.1c0-27.7-14.3-42.9-40.4-42.9C378.5,43,362,60.3,362,85.9
		c0,20.8,7.7,34.2,26.6,46.4l9.8,6.5C414,149,419,158.5,419,178c0,31.1-12.3,31.1-16.9,31.1c-10.6,0-16.9-8.3-16.9-22.3
		c0-5,0.8-9.1,2.9-15.1c1.6-4.2,1.5-8.8-0.3-12.4c-1.4-2.9-3.9-5-6.9-5.9c-7.8-2.5-15.2,1-18.5,8.7c-1.1,2.5-4.7,11.9-4.7,25.8
		c0,28.9,17.3,47.6,44,47.6c20.6,0,45.3-10.2,45.3-58.7C446.8,146.7,438,130.9,412,114.3z"/>
	<path class="st0" d="M482.2,44c-7.6,0-13.8,6.2-13.8,13.8v162.5c0,7.6,6.2,13.8,13.8,13.8c7.6,0,13.8-6.2,13.8-13.8V57.8
		C496,50.2,489.8,44,482.2,44z"/>
	<path class="st0" d="M565,44c-25.9,0-41.4,17.3-41.4,46.3v99c0,29,15.5,46.3,41.4,46.3c25.8,0,41.1-17.3,41.1-46.3v-3.6
		c0-8.6-5.6-14.6-13.5-14.6s-13.5,6-13.5,14.6v1c0,19.6-6.5,22.3-13.5,22.3c-6.7,0-14.3-2.6-14.3-23.1V93.7
		c0-20.3,6.8-23.1,14.1-23.1c7.2,0,13.8,2.8,13.8,23.1v0.8c0,8.1,5.7,14.1,13.5,14.1c7.7,0,13.5-5.8,13.5-13.5v-4.6
		C606.1,61.3,590.7,44,565,44z"/>
	<path class="st0" d="M669.9,42.5c-26.7,0-42.7,17.3-42.7,46.3v131.5c0,7.6,6.2,13.8,13.8,13.8s13.8-6.2,13.8-13.8v-51.7H685v51.7
		c0,7.6,6.2,13.8,13.8,13.8s13.8-6.2,13.8-13.8V88.8C712.6,59.8,696.7,42.5,669.9,42.5z M654.9,92.1c0-20.3,7.6-23.1,15.1-23.1
		s15,2.8,15,23.1v50.4h-30.2V92.1H654.9z"/>
	<path class="st0" d="M797.1,207h-30V57.8c0-7.6-6.2-13.8-13.8-13.8s-13.8,6.2-13.8,13.8v156.3c0,13.1,6.5,19.5,19.7,19.5h37.9
		c7.9,0,13.8-5.7,13.8-13.3S804.9,207,797.1,207z"/>
	<path class="st0" d="M841.4,44c-7.6,0-13.8,6.2-13.8,13.8v162.5c0,7.6,6.2,13.8,13.8,13.8s13.8-6.2,13.8-13.8V57.8
		C855.2,50.2,849,44,841.4,44z"/>
	<path class="st0" d="M926,42.5c-26.7,0-42.7,17.3-42.7,46.3v131.5c0,7.6,6.2,13.8,13.8,13.8s13.8-6.2,13.8-13.8v-51.7h30.2v51.7
		c0,7.6,6.2,13.8,13.8,13.8s13.8-6.2,13.8-13.8V88.8C968.7,59.8,952.7,42.5,926,42.5z M910.9,92.1c0-20.3,7.6-23.1,15.1-23.1
		s15.1,2.7,15.1,23.1v50.4h-30.2L910.9,92.1L910.9,92.1z"/>
</g>
</svg>
